<mxfile host="app.diagrams.net" modified="2024-05-28T11:11:12.307Z" agent="Mozilla/5.0 (Windows NT 10.0; Win64; x64) AppleWebKit/537.36 (KHTML, like Gecko) Chrome/124.0.0.0 Safari/537.36" etag="yZjkuxMk1RC6JZ2r8N6K" version="24.4.9" type="google">
  <diagram name="Page-1" id="WJZ1Zos8n7hP2foqtGGk">
    <mxGraphModel grid="1" page="1" gridSize="10" guides="1" tooltips="1" connect="1" arrows="1" fold="1" pageScale="1" pageWidth="827" pageHeight="1169" math="0" shadow="0">
      <root>
        <mxCell id="0" />
        <mxCell id="1" parent="0" />
        <mxCell id="Q4QQA2rXtdOzL5xE4iN0-6" style="edgeStyle=orthogonalEdgeStyle;rounded=0;orthogonalLoop=1;jettySize=auto;html=1;curved=0;" edge="1" parent="1">
          <mxGeometry relative="1" as="geometry">
            <mxPoint x="119.5" y="160" as="sourcePoint" />
            <mxPoint x="319.5" y="160" as="targetPoint" />
          </mxGeometry>
        </mxCell>
        <mxCell id="Q4QQA2rXtdOzL5xE4iN0-12" style="edgeStyle=orthogonalEdgeStyle;rounded=0;orthogonalLoop=1;jettySize=auto;html=1;curved=0;" edge="1" parent="1">
          <mxGeometry relative="1" as="geometry">
            <mxPoint x="120" y="280" as="sourcePoint" />
            <mxPoint x="320" y="280" as="targetPoint" />
          </mxGeometry>
        </mxCell>
        <mxCell id="Q4QQA2rXtdOzL5xE4iN0-42" style="edgeStyle=orthogonalEdgeStyle;rounded=0;orthogonalLoop=1;jettySize=auto;html=1;curved=0;dashed=1;" edge="1" parent="1">
          <mxGeometry relative="1" as="geometry">
            <mxPoint x="120.16666666666674" y="640.0000000000002" as="sourcePoint" />
            <mxPoint x="720.0000000000002" y="640.0000000000002" as="targetPoint" />
          </mxGeometry>
        </mxCell>
        <mxCell id="Q4QQA2rXtdOzL5xE4iN0-44" style="edgeStyle=orthogonalEdgeStyle;rounded=0;orthogonalLoop=1;jettySize=auto;html=1;curved=0;" edge="1" parent="1">
          <mxGeometry relative="1" as="geometry">
            <mxPoint x="120.08666666666674" y="680.0000000000002" as="sourcePoint" />
            <mxPoint x="319.92000000000024" y="680.0000000000002" as="targetPoint" />
          </mxGeometry>
        </mxCell>
        <mxCell id="Q4QQA2rXtdOzL5xE4iN0-1" value="Пользователь" style="shape=umlLifeline;perimeter=lifelinePerimeter;whiteSpace=wrap;html=1;container=1;dropTarget=0;collapsible=0;recursiveResize=0;outlineConnect=0;portConstraint=eastwest;newEdgeStyle={&quot;curved&quot;:0,&quot;rounded&quot;:0};" vertex="1" parent="1">
          <mxGeometry x="70" y="80" width="100" height="640" as="geometry" />
        </mxCell>
        <mxCell id="Q4QQA2rXtdOzL5xE4iN0-2" value="Приложение" style="shape=umlLifeline;perimeter=lifelinePerimeter;whiteSpace=wrap;html=1;container=1;dropTarget=0;collapsible=0;recursiveResize=0;outlineConnect=0;portConstraint=eastwest;newEdgeStyle={&quot;curved&quot;:0,&quot;rounded&quot;:0};" vertex="1" parent="1">
          <mxGeometry x="270" y="80" width="100" height="640" as="geometry" />
        </mxCell>
        <mxCell id="Q4QQA2rXtdOzL5xE4iN0-30" style="edgeStyle=orthogonalEdgeStyle;rounded=0;orthogonalLoop=1;jettySize=auto;html=1;curved=0;" edge="1" parent="1">
          <mxGeometry relative="1" as="geometry">
            <mxPoint x="519.9966666666668" y="520.0000000000001" as="sourcePoint" />
            <mxPoint x="719.8300000000003" y="520.0000000000001" as="targetPoint" />
          </mxGeometry>
        </mxCell>
        <mxCell id="Q4QQA2rXtdOzL5xE4iN0-4" value="Ресторан" style="shape=umlLifeline;perimeter=lifelinePerimeter;whiteSpace=wrap;html=1;container=1;dropTarget=0;collapsible=0;recursiveResize=0;outlineConnect=0;portConstraint=eastwest;newEdgeStyle={&quot;curved&quot;:0,&quot;rounded&quot;:0};" vertex="1" parent="1">
          <mxGeometry x="470" y="80" width="100" height="640" as="geometry" />
        </mxCell>
        <mxCell id="Q4QQA2rXtdOzL5xE4iN0-19" value="Запросить меню" style="html=1;verticalAlign=bottom;endArrow=block;curved=0;rounded=0;entryX=1;entryY=0;entryDx=0;entryDy=5;" edge="1" parent="Q4QQA2rXtdOzL5xE4iN0-4" source="Q4QQA2rXtdOzL5xE4iN0-2">
          <mxGeometry relative="1" as="geometry">
            <mxPoint x="125" y="125" as="sourcePoint" />
            <mxPoint x="55" y="125" as="targetPoint" />
          </mxGeometry>
        </mxCell>
        <mxCell id="Q4QQA2rXtdOzL5xE4iN0-20" value="Прислать меню" style="html=1;verticalAlign=bottom;endArrow=open;dashed=1;endSize=8;curved=0;rounded=0;" edge="1" parent="Q4QQA2rXtdOzL5xE4iN0-4" target="Q4QQA2rXtdOzL5xE4iN0-2">
          <mxGeometry relative="1" as="geometry">
            <mxPoint x="125" y="195" as="targetPoint" />
            <mxPoint x="55" y="160" as="sourcePoint" />
          </mxGeometry>
        </mxCell>
        <mxCell id="Q4QQA2rXtdOzL5xE4iN0-32" style="edgeStyle=orthogonalEdgeStyle;rounded=0;orthogonalLoop=1;jettySize=auto;html=1;curved=0;" edge="1" parent="1">
          <mxGeometry relative="1" as="geometry">
            <mxPoint x="719.8300000000003" y="559.1700000000001" as="sourcePoint" />
            <mxPoint x="519.9966666666668" y="559.1700000000001" as="targetPoint" />
          </mxGeometry>
        </mxCell>
        <mxCell id="Q4QQA2rXtdOzL5xE4iN0-40" style="edgeStyle=orthogonalEdgeStyle;rounded=0;orthogonalLoop=1;jettySize=auto;html=1;curved=0;" edge="1" parent="1">
          <mxGeometry relative="1" as="geometry">
            <mxPoint x="720.0000000000002" y="600.0000000000002" as="sourcePoint" />
            <mxPoint x="120.16666666666674" y="600.0000000000002" as="targetPoint" />
          </mxGeometry>
        </mxCell>
        <mxCell id="Q4QQA2rXtdOzL5xE4iN0-5" value="Курьер" style="shape=umlLifeline;perimeter=lifelinePerimeter;whiteSpace=wrap;html=1;container=1;dropTarget=0;collapsible=0;recursiveResize=0;outlineConnect=0;portConstraint=eastwest;newEdgeStyle={&quot;curved&quot;:0,&quot;rounded&quot;:0};" vertex="1" parent="1">
          <mxGeometry x="670" y="80" width="100" height="640" as="geometry" />
        </mxCell>
        <mxCell id="Q4QQA2rXtdOzL5xE4iN0-7" value="Выбрать ресторан" style="text;html=1;align=center;verticalAlign=middle;whiteSpace=wrap;rounded=0;" vertex="1" parent="1">
          <mxGeometry x="150" y="130" width="140" height="30" as="geometry" />
        </mxCell>
        <mxCell id="Q4QQA2rXtdOzL5xE4iN0-13" value="Выбрать блюда" style="text;html=1;align=center;verticalAlign=middle;whiteSpace=wrap;rounded=0;" vertex="1" parent="1">
          <mxGeometry x="170" y="250" width="100" height="30" as="geometry" />
        </mxCell>
        <mxCell id="Q4QQA2rXtdOzL5xE4iN0-15" value="Сделать заказ" style="text;html=1;align=center;verticalAlign=middle;whiteSpace=wrap;rounded=0;" vertex="1" parent="1">
          <mxGeometry x="170" y="290" width="100" height="30" as="geometry" />
        </mxCell>
        <mxCell id="Q4QQA2rXtdOzL5xE4iN0-24" value="Сделать заказ" style="html=1;verticalAlign=bottom;endArrow=block;curved=0;rounded=0;entryX=1;entryY=0;entryDx=0;entryDy=5;" edge="1" parent="1">
          <mxGeometry relative="1" as="geometry">
            <mxPoint x="320" y="360" as="sourcePoint" />
            <mxPoint x="525" y="360" as="targetPoint" />
          </mxGeometry>
        </mxCell>
        <mxCell id="Q4QQA2rXtdOzL5xE4iN0-25" value="Подтвердить заказ" style="html=1;verticalAlign=bottom;endArrow=open;dashed=1;endSize=8;curved=0;rounded=0;" edge="1" parent="1">
          <mxGeometry relative="1" as="geometry">
            <mxPoint x="320" y="395" as="targetPoint" />
            <mxPoint x="525" y="395" as="sourcePoint" />
          </mxGeometry>
        </mxCell>
        <mxCell id="Q4QQA2rXtdOzL5xE4iN0-28" style="edgeStyle=orthogonalEdgeStyle;rounded=0;orthogonalLoop=1;jettySize=auto;html=1;curved=0;" edge="1" parent="1" target="Q4QQA2rXtdOzL5xE4iN0-4">
          <mxGeometry relative="1" as="geometry">
            <mxPoint x="519.6666666666667" y="440.0000000000001" as="sourcePoint" />
            <mxPoint x="519.6666666666667" y="460.0000000000001" as="targetPoint" />
            <Array as="points">
              <mxPoint x="520" y="450" />
              <mxPoint x="640" y="450" />
              <mxPoint x="640" y="470" />
            </Array>
          </mxGeometry>
        </mxCell>
        <mxCell id="Q4QQA2rXtdOzL5xE4iN0-29" value="Приготовить заказ" style="text;html=1;align=center;verticalAlign=middle;whiteSpace=wrap;rounded=0;" vertex="1" parent="1">
          <mxGeometry x="520" y="420" width="120" height="30" as="geometry" />
        </mxCell>
        <mxCell id="Q4QQA2rXtdOzL5xE4iN0-31" value="Запросить курьера" style="text;html=1;align=center;verticalAlign=middle;whiteSpace=wrap;rounded=0;" vertex="1" parent="1">
          <mxGeometry x="560" y="490" width="110" height="30" as="geometry" />
        </mxCell>
        <mxCell id="Q4QQA2rXtdOzL5xE4iN0-33" value="Подтвердить начало доставки" style="text;html=1;align=center;verticalAlign=middle;whiteSpace=wrap;rounded=0;" vertex="1" parent="1">
          <mxGeometry x="560" y="530" width="120" height="30" as="geometry" />
        </mxCell>
        <mxCell id="Q4QQA2rXtdOzL5xE4iN0-35" style="edgeStyle=orthogonalEdgeStyle;rounded=0;orthogonalLoop=1;jettySize=auto;html=1;curved=0;" edge="1" parent="1">
          <mxGeometry relative="1" as="geometry">
            <mxPoint x="120" y="320" as="sourcePoint" />
            <mxPoint x="320" y="320" as="targetPoint" />
          </mxGeometry>
        </mxCell>
        <mxCell id="Q4QQA2rXtdOzL5xE4iN0-36" value="" style="rounded=0;whiteSpace=wrap;html=1;" vertex="1" parent="1">
          <mxGeometry x="520" y="190" width="10" height="60" as="geometry" />
        </mxCell>
        <mxCell id="Q4QQA2rXtdOzL5xE4iN0-38" value="" style="rounded=0;whiteSpace=wrap;html=1;" vertex="1" parent="1">
          <mxGeometry x="520" y="345" width="10" height="60" as="geometry" />
        </mxCell>
        <mxCell id="Q4QQA2rXtdOzL5xE4iN0-39" value="" style="rounded=0;whiteSpace=wrap;html=1;" vertex="1" parent="1">
          <mxGeometry x="720" y="510" width="10" height="60" as="geometry" />
        </mxCell>
        <mxCell id="Q4QQA2rXtdOzL5xE4iN0-41" value="Доставить заказ" style="text;html=1;align=center;verticalAlign=middle;whiteSpace=wrap;rounded=0;" vertex="1" parent="1">
          <mxGeometry x="367" y="570" width="96" height="30" as="geometry" />
        </mxCell>
        <mxCell id="Q4QQA2rXtdOzL5xE4iN0-43" value="Принять заказ" style="text;html=1;align=center;verticalAlign=middle;whiteSpace=wrap;rounded=0;" vertex="1" parent="1">
          <mxGeometry x="360" y="610" width="110" height="30" as="geometry" />
        </mxCell>
        <mxCell id="Q4QQA2rXtdOzL5xE4iN0-45" value="Оплатить заказ" style="text;html=1;align=center;verticalAlign=middle;whiteSpace=wrap;rounded=0;" vertex="1" parent="1">
          <mxGeometry x="160" y="650" width="120" height="30" as="geometry" />
        </mxCell>
      </root>
    </mxGraphModel>
  </diagram>
</mxfile>
